<?xml version="1.0" standalone="no"?><!DOCTYPE svg PUBLIC "-//W3C//DTD SVG 1.1//EN" "http://www.w3.org/Graphics/SVG/1.1/DTD/svg11.dtd"><svg t="1744369623561" class="icon" viewBox="0 0 1024 1024" version="1.1" xmlns="http://www.w3.org/2000/svg" p-id="5081" xmlns:xlink="http://www.w3.org/1999/xlink" width="200" height="200"><path d="M914.218667 704.981333l-117.802667-108.16a13.525333 13.525333 0 0 0-22.698667 9.984v81.194667a203.136 203.136 0 0 1-169.301333-99.84l-45.098667-76.970667 46.976-80.213333a202.88 202.88 0 0 1 167.424-99.797333v60.16c0 11.776 13.994667 17.877333 22.698667 9.941333l117.76-108.074667a13.568 13.568 0 0 0 0-19.925333l-117.76-108.288a13.525333 13.525333 0 0 0-22.698667 10.026667v75.946666h-15.701333a40.277333 40.277333 0 0 0-13.525333 2.346667 282.154667 282.154667 0 0 0-207.189334 137.173333l-24.32 41.514667-24.32-41.514667a283.008 283.008 0 0 0-103.04-102.186666 282.666667 282.666667 0 0 0-140.330666-37.290667H105.002667a39.978667 39.978667 0 1 0 0 80h140.288c71.424 0 138.325333 38.272 174.421333 99.882667l46.976 80.213333-45.098667 77.013333a202.88 202.88 0 0 1-174.378666 99.882667H104.96a39.978667 39.978667 0 1 0 0 80l141.994667 0.085333h0.213333c49.066667 0 97.578667-12.885333 140.202667-37.290666a282.496 282.496 0 0 0 103.168-102.186667l22.4-38.314667 22.4 38.314667a281.770667 281.770667 0 0 0 210.517333 137.6c3.84 1.194667 7.808 1.792 11.904 1.792l15.914667 0.085333v55.04c0 11.776 13.994667 17.877333 22.698666 9.984l117.76-108.117333a13.525333 13.525333 0 0 0 0-20.010667z" fill="#262B2F" p-id="5082"></path></svg>