<svg width="438.000000" height="85.000000" viewBox="0 0 438 85" fill="none" xmlns="http://www.w3.org/2000/svg" xmlns:xlink="http://www.w3.org/1999/xlink">
	<desc>
			Created with Pixso.
	</desc>
	<defs>
		<filter id="filter_2_6_dd" x="-4.000000" y="0.000000" width="93.000000" height="93.000000" filterUnits="userSpaceOnUse" color-interpolation-filters="sRGB">
			<feFlood flood-opacity="0" result="BackgroundImageFix"/>
			<feColorMatrix in="SourceAlpha" type="matrix" values="0 0 0 0 0 0 0 0 0 0 0 0 0 0 0 0 0 0 127 0" result="hardAlpha"/>
			<feOffset dx="0" dy="4"/>
			<feGaussianBlur stdDeviation="1.33333"/>
			<feComposite in2="hardAlpha" operator="out" k2="-1" k3="1"/>
			<feColorMatrix type="matrix" values="0 0 0 0 0 0 0 0 0 0 0 0 0 0 0 0 0 0 0.25 0"/>
			<feBlend mode="normal" in2="BackgroundImageFix" result="effect_dropShadow_1"/>
			<feBlend mode="normal" in="SourceGraphic" in2="effect_dropShadow_1" result="shape"/>
		</filter>
		<filter id="filter_2_9_dd" x="13.991684" y="3.000000" width="56.025375" height="88.004044" filterUnits="userSpaceOnUse" color-interpolation-filters="sRGB">
			<feFlood flood-opacity="0" result="BackgroundImageFix"/>
			<feColorMatrix in="SourceAlpha" type="matrix" values="0 0 0 0 0 0 0 0 0 0 0 0 0 0 0 0 0 0 127 0" result="hardAlpha"/>
			<feOffset dx="0" dy="4"/>
			<feGaussianBlur stdDeviation="1.33333"/>
			<feComposite in2="hardAlpha" operator="out" k2="-1" k3="1"/>
			<feColorMatrix type="matrix" values="0 0 0 0 0 0 0 0 0 0 0 0 0 0 0 0 0 0 0.25 0"/>
			<feBlend mode="normal" in2="BackgroundImageFix" result="effect_dropShadow_1"/>
			<feBlend mode="normal" in="SourceGraphic" in2="effect_dropShadow_1" result="shape"/>
		</filter>
		<clipPath id="clip2_1">
			<rect id="画板 1" width="438.000000" height="85.000000" fill="white" fill-opacity="0"/>
		</clipPath>
	</defs>
	<g clip-path="url(#clip2_1)">
		<g filter="url(#filter_2_6_dd)">
			<circle id="椭圆 1" cx="42.500000" cy="42.500000" r="42.500000" fill="#787878" fill-opacity="1.000000"/>
		</g>
		<g filter="url(#filter_2_9_dd)">
			<path id="矢量 1" d="M32.97 7C47.38 7 74.48 33.36 55.45 21.91C37.46 9.98 30.8 8.52 29.72 9.28C30.02 7.83 31.03 7 32.97 7Z" fill="#000000" fill-opacity="1.000000" fill-rule="evenodd"/>
			<path id="矢量 1" d="M29.72 9.28C30.8 8.52 37.46 9.98 55.45 21.91C74.48 33.36 47.38 7 32.97 7C31.03 7 30.02 7.83 29.72 9.28C27.78 18.62 55.45 53.47 55.45 53.47C57.76 57.16 62.18 64.22 60.35 70.32C58.83 75.4 52.71 80.13 39.88 78.75C26.75 77.35 22.6 65.94 22.01 59.95C21.33 53.06 41.7 51.06 55.45 53.47" stroke="#E5E5E5" stroke-opacity="1.000000" stroke-width="8.000000"/>
		</g>
		<path id="TrayMusic" d="M395.08 11.62L383.57 11.62L383.57 23.16L395.08 23.16L395.08 11.62ZM124.3 16.6L86.43 16.6L86.43 26.32L99.39 26.32L99.39 67L111.34 67L111.34 26.32L124.3 26.32L124.3 16.6ZM252.75 25.53L253.4 25.53L261.96 67L275.93 67L284.56 25.53L285.14 25.53L285.14 67L296.59 67L296.59 16.6L275.93 16.6L269.09 52.67L268.95 53.39L268.79 52.67L261.96 16.6L241.3 16.6L241.3 67L252.75 67L252.75 25.53ZM162.18 65.92Q165.92 67.93 170.74 67.93Q174.84 67.93 178.2 66.35Q179.85 65.57 181.32 64.41Q181.68 65.99 182.18 67L193 67Q191.55 63.76 191.55 57.92L191.55 28.11L180.02 28.11L180.02 30.56Q178.5 29.44 176.83 28.67Q176.12 28.34 175.38 28.08Q172.9 27.18 170.44 27.18Q166.01 27.18 162.5 28.98Q161.8 29.34 161.13 29.78Q160.14 30.42 159.26 31.19Q156.59 33.51 154.94 37.01Q152.74 41.65 152.74 47.62Q152.74 53.67 154.94 58.21Q156.36 61.15 158.57 63.27Q159.77 64.43 161.2 65.34Q161.68 65.65 162.18 65.92ZM354.88 67.17Q359.38 68.07 363.78 67.86Q368.92 67.61 372.46 65.11Q373.03 64.7 373.57 64.24Q375.21 62.79 376.15 60.98Q377.38 58.58 377.38 55.55Q377.38 51.95 375.8 49.65Q375.73 49.55 375.66 49.45Q374.1 47.28 371.44 45.9Q368.66 44.46 364.34 43.09Q361.32 42.16 359.7 41.01Q358.51 40.16 358.31 39.12Q358.24 38.74 358.29 38.34Q358.37 37.87 358.6 37.48Q359.62 35.74 363.62 35.74Q365.94 35.74 369.07 36.66Q372.2 37.55 374.5 38.69L374.5 29.41Q372.27 28.41 368.95 27.8Q365.64 27.18 362.41 27.18Q358.27 27.18 354.66 28.56Q354.5 28.63 354.34 28.69Q350.59 30.2 348.85 32.84Q348.27 33.73 347.88 34.71Q347.13 36.59 347.13 38.76Q347.13 41.95 348.47 44Q349.8 46.04 352.39 47.66Q354.99 49.28 359.38 50.51Q363.34 51.58 364.78 52.74Q365.22 53.1 365.5 53.56Q366.11 54.59 365.85 56.13Q365.71 56.99 364.71 57.82Q363.71 58.65 361.48 58.79Q358.29 59 354.15 57.61Q350.01 56.2 347.06 54.04L347.06 64.41Q350.38 66.27 354.88 67.17ZM428.23 67.66Q431.99 67.16 435.63 65.69L435.63 55.9Q433.98 57.27 431.55 58.03Q429.14 58.79 426.49 58.79Q423.87 58.79 421.47 58.08Q420.69 57.84 419.93 57.54Q417.58 56.58 415.89 54.94Q415.36 54.42 414.89 53.83Q414.45 53.28 414.11 52.67Q412.95 50.57 412.95 47.83Q412.95 42.73 415.5 40.01Q416.04 39.43 416.7 38.96Q416.73 38.94 416.76 38.91Q420.49 36.25 426.12 36.25Q427.37 36.25 428.6 36.39Q431.92 36.76 435.12 38.13L435.12 29.27Q429.37 27.25 423.74 27.25Q417.83 27.25 412.98 29.54Q412.76 29.64 412.55 29.75Q409.81 31.11 407.71 33.12Q405.98 34.79 404.67 36.9Q404.43 37.3 404.21 37.7Q401.79 42.11 401.79 47.83Q401.79 52.32 403.49 56.02Q404.06 57.25 404.81 58.4Q405.88 60.01 407.2 61.35Q409.65 63.84 412.99 65.45Q413.83 65.86 414.71 66.2Q419.14 67.93 424.25 67.93Q426.26 67.93 428.23 67.66ZM137.76 32.3L137.76 28.11L126.25 28.11L126.25 67L137.76 67L137.76 40.65Q138.47 39.8 139.34 39.16Q140.47 38.31 141.86 37.8Q142.17 37.68 142.48 37.59Q144.66 36.9 147.06 36.9Q148.85 36.9 150.87 37.41L150.87 28.55Q149.29 28.04 147.48 28.04Q144.9 28.04 142.26 29.17Q140.51 29.91 139.09 31.05Q138.39 31.62 137.76 32.3ZM219.05 77.18Q222.87 73.64 224.66 67.93L236.98 28.11L225.03 28.11L217.4 55.41L206.89 28.11L195.15 28.11L209.19 62.18L215.52 62.18L214.59 65.48Q213.8 68.37 212.22 70.16Q210.7 71.97 207.38 73.04Q203.8 74.13 198.89 74.13L198.89 83.41Q210.48 83.13 216.38 79.23Q217.82 78.32 219.05 77.18ZM330.66 64.82Q331.01 65.98 331.59 67.07L342.38 67.07Q341.52 65.2 341.22 63.58Q340.94 61.95 340.94 59.58L340.94 28.11L329.43 28.11L329.43 55.69Q327.7 56.99 325.14 58.08Q322.59 59.16 321.08 59.16Q319.24 59.16 317.97 58.31Q317.65 58.09 317.37 57.82Q316.83 57.31 316.5 56.7Q315.96 55.69 315.96 54.39L315.96 28.11L304.45 28.11L304.45 56.34Q304.45 59.8 305.94 62.4Q306.66 63.65 307.72 64.69Q308.34 65.31 309.05 65.81Q312.05 67.93 316.54 67.93Q320.15 67.93 323.85 66.38Q327.56 64.83 330.22 62.46Q330.32 63.67 330.66 64.82ZM395.08 67L395.08 28.11L383.57 28.11L383.57 67L395.08 67ZM164.9 53.3Q163.76 50.71 163.76 47.62Q163.76 44.37 164.98 41.68Q165.03 41.58 165.08 41.47Q166.42 38.7 168.61 37.11L168.61 37.11Q170.3 35.9 172.12 35.62Q172.68 35.53 173.26 35.53Q175.07 35.53 177.18 36.25Q179.3 36.97 180.88 39.49L180.88 55.62Q179.3 58.14 177.14 58.89Q175 59.65 173.26 59.65Q172.71 59.65 172.17 59.57Q170.32 59.28 168.61 58.03Q168.5 57.95 168.39 57.86Q166.35 56.27 165.08 53.69Q164.99 53.49 164.9 53.3Z" fill="#787878" fill-opacity="1.000000" fill-rule="evenodd"/>
	</g>
</svg>
