<?xml version="1.0" standalone="no"?><!DOCTYPE svg PUBLIC "-//W3C//DTD SVG 1.1//EN" "http://www.w3.org/Graphics/SVG/1.1/DTD/svg11.dtd"><svg t="1739896673516" class="icon" viewBox="0 0 1024 1024" version="1.1" xmlns="http://www.w3.org/2000/svg" p-id="1733" xmlns:xlink="http://www.w3.org/1999/xlink" width="200" height="200"><path d="M530.678665 0.233584c-11.646981-1.087374-25.279426 1.727716-41.342353 11.455684 0 0-266.875751 232.828871-278.522732 244.284554h-146.815594C28.672435 256.036246 0 284.708681 0 320.036246v392.121071c0 35.454425 28.672435 63.997986 63.997986 63.997986h146.878017c11.646981 11.584558 278.522732 236.155429 278.522732 236.155429 16.062927 9.663531 29.695372 12.543058 41.342353 11.455684 23.680584-2.239184 40.319416-22.079728 45.375704-43.007646 0.191297-2.047887 0.191297-935.409244-0.128874-937.457131C570.998081 22.313312 554.294812 2.472768 530.678665 0.233584zM902.065129 512.032218l110.463078-110.463077c15.295724-15.231287 15.295724-39.999245 0-55.230532-15.231287-15.231287-39.999245-15.231287-55.230532 0l-110.463078 110.525501-110.525501-110.525501c-15.16685-15.231287-39.999245-15.231287-55.168109 0-15.231287 15.231287-15.231287 39.999245 0 55.230532l110.463078 110.463077-110.463078 110.525502c-15.231287 15.16685-15.231287 39.999245 0 55.166095 15.16685 15.231287 39.999245 15.231287 55.166095 0l110.525501-110.463078 110.463078 110.463078c15.231287 15.231287 39.999245 15.231287 55.230532 0 15.231287-15.16685 15.231287-39.999245 0-55.166095l-110.461064-110.525502z" fill="#010002" p-id="1734"></path></svg>