<?xml version="1.0" encoding="UTF-8" standalone="no"?>
<svg
   width="360"
   height="64"
   viewBox="0 0 360 64"
   fill="none"
   version="1.1"
   id="svg7"
   sodipodi:docname="logo.svg"
   inkscape:version="1.4.2 (f4327f4, 2025-05-13)"
   xmlns:inkscape="http://www.inkscape.org/namespaces/inkscape"
   xmlns:sodipodi="http://sodipodi.sourceforge.net/DTD/sodipodi-0.dtd"
   xmlns="http://www.w3.org/2000/svg"
   xmlns:svg="http://www.w3.org/2000/svg">
  <sodipodi:namedview
     id="namedview7"
     pagecolor="#ffffff"
     bordercolor="#000000"
     borderopacity="0.25"
     inkscape:showpageshadow="2"
     inkscape:pageopacity="0.0"
     inkscape:pagecheckerboard="0"
     inkscape:deskcolor="#d1d1d1"
     inkscape:zoom="2.7579909"
     inkscape:cx="79.949503"
     inkscape:cy="2.3567881"
     inkscape:window-width="2560"
     inkscape:window-height="1369"
     inkscape:window-x="-8"
     inkscape:window-y="-8"
     inkscape:window-maximized="1"
     inkscape:current-layer="g7" />
  <desc
     id="desc1">
			Created with Pixso.
	</desc>
  <defs
     id="defs5">
    <filter
       id="filter_2_6_dd"
       x="-4"
       y="0"
       width="93"
       height="93"
       filterUnits="userSpaceOnUse"
       color-interpolation-filters="sRGB">
      <feFlood
         flood-opacity="0"
         result="BackgroundImageFix"
         id="feFlood1" />
      <feColorMatrix
         in="SourceAlpha"
         type="matrix"
         values="0 0 0 0 0 0 0 0 0 0 0 0 0 0 0 0 0 0 127 0"
         result="hardAlpha"
         id="feColorMatrix1" />
      <feOffset
         dx="0"
         dy="4"
         id="feOffset1" />
      <feGaussianBlur
         stdDeviation="1.33333"
         id="feGaussianBlur1" />
      <feComposite
         in2="hardAlpha"
         operator="out"
         id="feComposite1" />
      <feColorMatrix
         type="matrix"
         values="0 0 0 0 0 0 0 0 0 0 0 0 0 0 0 0 0 0 0.25 0"
         id="feColorMatrix2" />
      <feBlend
         mode="normal"
         in2="BackgroundImageFix"
         result="effect_dropShadow_1"
         id="feBlend2" />
      <feBlend
         mode="normal"
         in="SourceGraphic"
         in2="effect_dropShadow_1"
         result="shape"
         id="feBlend3" />
    </filter>
    <filter
       id="filter_2_9_dd"
       x="13.991684"
       y="3"
       width="56.025375"
       height="88.004044"
       filterUnits="userSpaceOnUse"
       color-interpolation-filters="sRGB">
      <feFlood
         flood-opacity="0"
         result="BackgroundImageFix"
         id="feFlood3" />
      <feColorMatrix
         in="SourceAlpha"
         type="matrix"
         values="0 0 0 0 0 0 0 0 0 0 0 0 0 0 0 0 0 0 127 0"
         result="hardAlpha"
         id="feColorMatrix3" />
      <feOffset
         dx="0"
         dy="4"
         id="feOffset3" />
      <feGaussianBlur
         stdDeviation="1.33333"
         id="feGaussianBlur3" />
      <feComposite
         in2="hardAlpha"
         operator="out"
         id="feComposite3" />
      <feColorMatrix
         type="matrix"
         values="0 0 0 0 0 0 0 0 0 0 0 0 0 0 0 0 0 0 0.25 0"
         id="feColorMatrix4" />
      <feBlend
         mode="normal"
         in2="BackgroundImageFix"
         result="effect_dropShadow_1"
         id="feBlend4" />
      <feBlend
         mode="normal"
         in="SourceGraphic"
         in2="effect_dropShadow_1"
         result="shape"
         id="feBlend5" />
    </filter>
    <clipPath
       id="clip2_1">
      <rect
         id="画板 1"
         width="438"
         height="85"
         fill="#ffffff"
         fill-opacity="0"
         x="0"
         y="0" />
    </clipPath>
    <clipPath
       id="clip2_1-2">
      <rect
         id="画板 1-4"
         width="145"
         height="145"
         fill="#ffffff"
         fill-opacity="0"
         x="0"
         y="0" />
    </clipPath>
  </defs>
  <g
     clip-path="url(#clip2_1)"
     id="g7">
    <path
       id="TrayMusic"
       d="m 321.96071,2 h -9.61973 v 9.644798 h 9.61973 z M 95.650646,6.16214 H 64 v 8.123694 h 10.831586 v 33.999164 h 9.987462 V 14.285834 h 10.831598 z m 107.354774,7.463435 h 0.54326 l 7.15419,34.659423 h 11.67572 l 7.21271,-34.659423 h 0.48474 v 34.659423 h 9.56959 V 6.16214 h -17.26704 l -5.71667,30.146259 -0.11704,0.601756 -0.13373,-0.601756 -5.70831,-30.146259 h -17.26702 v 42.122858 h 9.56957 z m -75.69577,33.75679 q 3.12579,1.6799 7.1542,1.6799 3.42666,0 6.23484,-1.320518 1.37903,-0.651901 2.60762,-1.621395 0.30087,1.320518 0.71875,2.164646 h 9.04305 Q 151.85624,45.5771 151.85624,40.696197 V 15.781864 h -9.63644 v 2.047639 q -1.27037,-0.936064 -2.66612,-1.579608 -0.59339,-0.275804 -1.21185,-0.493104 -2.07271,-0.752194 -4.12871,-0.752194 -3.70247,0 -6.63603,1.504387 -0.58504,0.300879 -1.14501,0.668617 -0.82741,0.534894 -1.56288,1.178437 -2.23151,1.938989 -3.61054,4.864188 -1.83869,3.877977 -1.83869,8.86753 0,5.056415 1.83869,8.850815 1.18679,2.457167 3.03385,4.229001 1.00293,0.969495 2.19807,1.730046 0.40118,0.25909 0.81907,0.484747 z m 161.05307,1.044714 q 3.76097,0.752194 7.43836,0.576682 4.29587,-0.208942 7.25449,-2.29837 0.47639,-0.342666 0.92771,-0.727121 1.37067,-1.211867 2.15629,-2.724613 1.02799,-2.005851 1.02799,-4.538237 0,-3.008776 -1.32051,-4.931049 -0.0584,-0.08358 -0.11703,-0.167154 -1.3038,-1.813623 -3.52695,-2.966987 -2.32345,-1.203511 -5.93398,-2.348516 -2.52402,-0.777268 -3.87797,-1.738404 -0.99456,-0.710406 -1.16172,-1.579607 -0.0584,-0.317594 -0.0167,-0.651903 0.0668,-0.392811 0.25908,-0.718761 0.85249,-1.454242 4.19558,-1.454242 1.93899,0 4.55495,0.768909 2.61596,0.743835 4.53823,1.696615 v -7.755956 q -1.86376,-0.83577 -4.63852,-1.345591 -2.7664,-0.518177 -5.46594,-0.518177 -3.4601,0 -6.47723,1.153363 -0.13373,0.0585 -0.26744,0.108654 -3.13416,1.262013 -4.5884,3.46845 -0.48474,0.743836 -0.81068,1.562891 -0.62683,1.57125 -0.62683,3.384872 0,2.666111 1.11993,4.379441 1.11157,1.704973 3.27622,3.058922 2.173,1.353949 5.84204,2.381948 3.30965,0.894274 4.51315,1.863768 0.36775,0.300878 0.60176,0.685332 0.50983,0.860845 0.29252,2.147932 -0.11703,0.718764 -0.95278,1.412454 -0.83577,0.693689 -2.69954,0.810696 -2.6661,0.175513 -6.1262,-0.986209 -3.46008,-1.178436 -5.9256,-2.983702 v 8.666946 q 2.77475,1.554533 6.53572,2.306727 z m 61.3038,0.409528 q 3.14249,-0.417885 6.18471,-1.64647 v -8.182198 q -1.37903,1.145007 -3.40995,1.780193 -2.01421,0.635185 -4.229,0.635185 -2.18973,0 -4.19557,-0.593397 -0.65191,-0.200584 -1.28709,-0.451316 -1.96407,-0.80234 -3.37652,-2.173004 -0.44295,-0.434601 -0.83576,-0.927705 -0.36775,-0.459675 -0.65191,-0.969496 -0.96949,-1.755119 -0.96949,-4.045131 0,-4.262432 2.13121,-6.53573 0.45132,-0.484746 1.00293,-0.877559 0.025,-0.01671 0.0501,-0.04179 3.11742,-2.22315 7.82282,-2.22315 1.04471,0 2.07271,0.117003 2.77476,0.309235 5.44923,1.454242 v -7.404931 q -4.80568,-1.688257 -9.51107,-1.688257 -4.93942,0 -8.9929,1.913915 -0.18388,0.08358 -0.35938,0.175512 -2.29002,1.136648 -4.04513,2.816548 -1.44589,1.395737 -2.54075,3.159214 -0.20058,0.334309 -0.38445,0.668617 -2.02257,3.68575 -2.02257,8.46636 0,3.752612 1.4208,6.844965 0.47641,1.027998 1.10322,1.989134 0.89428,1.345592 1.9975,2.465525 2.04765,2.08107 4.83911,3.426661 0.70205,0.342666 1.43753,0.626828 3.70247,1.445885 7.97326,1.445885 1.6799,0 3.32637,-0.225658 z M 106.90013,19.283744 v -3.50188 h -9.619734 v 32.503134 h 9.619734 V 26.262432 q 0.59339,-0.710405 1.32051,-1.245299 0.94443,-0.710404 2.10615,-1.136648 0.25908,-0.10029 0.51817,-0.175513 1.82198,-0.576681 3.82784,-0.576681 1.49602,0 3.18428,0.426243 v -7.404932 q -1.32051,-0.426242 -2.83326,-0.426242 -2.1563,0 -4.36272,0.944421 -1.46261,0.61847 -2.64941,1.571249 -0.58504,0.47639 -1.11156,1.044714 z m 67.93981,37.509402 q 3.19265,-2.958629 4.68869,-7.730881 l 10.29669,-33.280401 h -9.98746 l -6.37694,22.816549 -8.78395,-22.816549 h -9.81196 l 11.73423,28.474718 h 5.29043 l -0.77726,2.758044 q -0.66026,2.415378 -1.98079,3.911408 -1.27037,1.512746 -4.04512,2.40702 -2.99207,0.910992 -7.0957,0.910992 V 62 q 9.68658,-0.234015 14.61764,-3.493523 1.20351,-0.760552 2.2315,-1.713331 z m 93.28041,-10.330128 q 0.29251,0.969494 0.77726,1.880484 h 9.01797 q -0.71877,-1.562891 -0.96949,-2.91684 -0.23402,-1.362307 -0.23402,-3.343086 V 15.781864 h -9.61973 v 23.050564 q -1.44587,1.086503 -3.58545,1.997492 -2.13122,0.902633 -3.39323,0.902633 -1.53782,0 -2.59925,-0.710404 -0.26745,-0.183871 -0.50147,-0.409528 -0.45131,-0.426244 -0.72712,-0.936065 -0.45131,-0.844128 -0.45131,-1.930631 V 15.781864 h -9.61973 v 23.593815 q 0,2.891768 1.2453,5.064772 0.60175,1.044713 1.48768,1.913916 0.51818,0.518177 1.11157,0.936063 2.50731,1.771835 6.25993,1.771835 3.01714,0 6.10949,-1.295445 3.1007,-1.295444 5.32385,-3.276223 0.0836,1.011283 0.36775,1.972421 z m 53.84036,1.82198 V 15.781864 h -9.61973 V 48.284998 Z M 129.58295,36.834935 q -0.95279,-2.164647 -0.95279,-4.747179 0,-2.716255 1.01964,-4.96448 0.0417,-0.08358 0.0836,-0.175511 1.11993,-2.315086 2.95027,-3.643963 v 0 q 1.41245,-1.011283 2.93356,-1.245298 0.46802,-0.07521 0.95278,-0.07521 1.51274,0 3.27622,0.601756 1.77183,0.601755 3.09235,2.707898 v 13.480986 q -1.32052,2.106143 -3.12578,2.732971 -1.78855,0.635186 -3.24279,0.635186 -0.45968,0 -0.91099,-0.06686 -1.54619,-0.242373 -2.97535,-1.287087 -0.092,-0.06686 -0.18387,-0.142079 -1.70497,-1.328876 -2.7664,-3.485165 -0.0753,-0.167155 -0.15043,-0.325951 z"
       fill="#787878"
       fill-opacity="1"
       fill-rule="evenodd"
       style="stroke-width:0.835772" />
    <g
       clip-path="url(#clip2_1-2)"
       id="g2"
       transform="matrix(0.41379311,0,0,0.41379311,4,2)"
       style="stroke-width:0.999896;stroke-dasharray:none"
       inkscape:highlight-color="#aaaaaa">
      <circle
         id="椭圆 1-5"
         cx="72.5"
         cy="72.5"
         r="72.5"
         fill="#8a8a8a"
         fill-opacity="1"
         style="stroke-width:0.999896;stroke-dasharray:none" />
    </g>
    <circle
       style="fill:#ffffff;fill-opacity:1;stroke:none;stroke-width:2.4375;stroke-dasharray:none;stroke-dashoffset:0;stroke-opacity:1"
       id="path1"
       cx="34.000004"
       cy="32"
       r="24.375" />
    <path
       d="m 24.73445,39.480094 c -1.092062,0.669485 -1.871712,1.71701 -2.146637,2.892932 -0.556613,2.339612 1.090137,4.542685 3.698212,4.923787 1.067075,0.155916 2.005325,0.178325 2.808988,0.07135 1.70155,-0.229266 3.091625,-1.05975 4.194262,-2.536276 0.748875,-1.018998 1.144938,-2.221409 1.147825,-3.454398 l 0.0075,-4.526377 c -4.832587,0.736726 -8.094362,1.627327 -9.709387,2.628999 z m 9.752638,-26.893335 c 0.0025,-0.71126 0.778675,-1.044471 1.170887,-0.499309 l 9.486363,12.131144 c 1.951488,2.294783 2.554238,5.479141 1.454488,8.125475 -0.859425,1.991118 -2.551363,3.195571 -4.993126,3.586863 -0.421062,0.06829 -0.833475,-0.212969 -0.92095,-0.626682 -0.0865,-0.413712 0.18265,-0.803988 0.5989,-0.871241 1.955338,-0.319962 3.235826,-1.23604 3.909713,-2.777781 0.894038,-2.107284 0.3992,-4.684656 -1.106487,-6.470623 l -8.038126,-9.561817 5e-4,25.769963 c 0.01262,1.53257 -0.465287,3.025403 -1.386237,4.28997 -1.34585,1.81076 -3.143538,2.879688 -5.341113,3.16908 -0.9969,0.132478 -2.114925,0.103962 -3.355037,-0.07745 -3.543438,-0.51765 -5.7516,-3.484967 -4.968125,-6.633667 0.385487,-1.582496 1.444875,-2.992786 2.913775,-3.895617 1.893812,-1.182036 5.393037,-2.139893 10.535162,-2.922479 z"
       fill="#000000"
       p-id="17310"
       id="path1-8"
       style="fill:none;fill-opacity:1;stroke:#8a8a8a;stroke-width:3.69972;stroke-dasharray:none;stroke-dashoffset:0;stroke-opacity:1"
       sodipodi:nodetypes="ccscccccccccccccccccccccccc" />
  </g>
</svg>
