<?xml version="1.0" standalone="no"?><!DOCTYPE svg PUBLIC "-//W3C//DTD SVG 1.1//EN" "http://www.w3.org/Graphics/SVG/1.1/DTD/svg11.dtd"><svg t="1744370198250" class="icon" viewBox="0 0 1024 1024" version="1.1" xmlns="http://www.w3.org/2000/svg" p-id="4259" xmlns:xlink="http://www.w3.org/1999/xlink" width="200" height="200"><path d="M563.717172 408.565657v310.30303h-51.717172v-206.868687h-51.717172v-51.717172h51.717172v-51.717171h51.717172z m206.868687-51.717172h-413.737374a206.868687 206.868687 0 0 0 0 413.737374h310.30303a206.868687 206.868687 0 0 0 206.868687-206.868687v-51.717172h98.262626a340.247273 340.247273 0 0 1 5.171717 51.717172 310.30303 310.30303 0 0 1-310.30303 310.30303h-310.30303a310.30303 310.30303 0 0 1 0-620.606061h413.737374v-103.434343l206.868686 155.151515-206.868686 155.151515v-103.434343z" fill="#333333" p-id="4260"></path></svg>