<?xml version="1.0" standalone="no"?><!DOCTYPE svg PUBLIC "-//W3C//DTD SVG 1.1//EN" "http://www.w3.org/Graphics/SVG/1.1/DTD/svg11.dtd"><svg t="1739642062979" class="icon" viewBox="0 0 1024 1024" version="1.1" xmlns="http://www.w3.org/2000/svg" p-id="6181" xmlns:xlink="http://www.w3.org/1999/xlink" width="200" height="200"><path d="M944.9 174.7c0-46.7-36.7-84.5-81.9-84.5s-81.9 37.9-81.9 84.5c-7.9 77.4-13 154.8-15.5 232.2-165.1-131.6-351.6-233-559.5-304.1-52.5-18-107.7 17.3-116.3 73.6-34.1 223.9-34 447.8 0.2 671.8 8.6 55.9 63 91 115.3 73.9 212.4-69.2 399.1-169.9 560.4-301.9 2.5 76.5 7.6 153.1 15.4 229.6 0 46.7 36.7 84.5 81.9 84.5s81.9-37.9 81.9-84.5c20.5-225 20.5-450.1 0-675.1z" p-id="6182"></path></svg>