<?xml version="1.0" standalone="no"?><!DOCTYPE svg PUBLIC "-//W3C//DTD SVG 1.1//EN" "http://www.w3.org/Graphics/SVG/1.1/DTD/svg11.dtd"><svg t="1744394030330" class="icon" viewBox="0 0 1146 1024" version="1.1" xmlns="http://www.w3.org/2000/svg" p-id="3444" xmlns:xlink="http://www.w3.org/1999/xlink" width="223.828125" height="200"><path d="M1055.70730567 290.42931201L900.49020312 446.20265234C884.4122542 462.33357646 858.34849502 462.33357646 842.27054609 446.20265234 826.21908477 430.07172823 826.21908477 403.90201953 842.27054609 387.77109541L929.94436953 299.7794208 101.73134023 299.7794208C79.79964013 299.7794208 62 282.00626739 62 260.07456817 62 238.11638047 79.79964013 220.34322793 101.73134023 220.34322793L929.94436953 220.34322793 842.27054609 132.35155332C826.21908477 116.2206292 826.21908477 90.07740723 842.27054609 73.9199955 858.34849502 57.78907138 884.4122542 57.78907138 900.49020312 73.9199955L1055.70730567 229.71982432C1057.50845967 231.52097832 1058.35606104 233.7989082 1059.75990195 235.81196299 1060.8723793 237.21580303 1061.77295674 238.72559434 1062.7000209 240.26187325 1063.49464795 241.82463886 1064.44820058 243.22847979 1065.03092685 244.8442206 1067.07046836 249.55900684 1068.52728447 254.56515489 1068.52728447 260.07456817 1068.52728447 265.92831846 1067.09695596 271.38475566 1064.81902607 276.39090459 1062.83245888 281.50300391 1059.83936474 286.29725205 1055.70730567 290.42931201ZM101.73134023 723.60686972L929.94436953 723.60686972 842.27054609 635.61519511C826.21908477 619.48427099 826.21908477 593.31456143 842.27054609 577.2101249 858.34849502 561.07920078 884.4122542 561.07920078 900.49020312 577.2101249L1055.70730567 732.98346612C1057.50845967 734.78462011 1058.35606104 737.06255 1059.75990195 739.07560479 1060.8723793 740.4794457 1061.74646914 741.98923614 1062.6735333 743.52551503 1063.46816036 745.06179395 1064.44820058 746.49212158 1065.03092685 748.10786328 1067.07046836 752.82264863 1068.52728447 757.82879756 1068.52728447 763.33820997 1068.52728447 769.19196113 1067.09695596 774.64839834 1064.81902607 779.65454727 1062.80597129 784.7666457 1059.83936474 789.56089473 1055.70730567 793.69295381L900.49020312 949.46629502C884.4122542 965.59721914 858.34849502 965.59721914 842.27054609 949.46629502 826.21908477 933.3353709 826.21908477 907.19214893 842.27054609 891.03473721L929.94436953 803.06955019 101.73134023 803.06955019C79.79964013 803.06955019 62 785.26991006 62 763.33820997 62 741.38002227 79.79964013 723.60686972 101.73134023 723.60686972Z" fill="#2c2c2c" p-id="3445"></path></svg>