<?xml version="1.0" standalone="no"?><!DOCTYPE svg PUBLIC "-//W3C//DTD SVG 1.1//EN" "http://www.w3.org/Graphics/SVG/1.1/DTD/svg11.dtd"><svg t="1741267958199" class="icon" viewBox="0 0 1228 1024" version="1.1" xmlns="http://www.w3.org/2000/svg" p-id="3615" xmlns:xlink="http://www.w3.org/1999/xlink" width="239.84375" height="200"><path d="M1030.957839 124.026235c52.182769 0 100.638197 26.91058 136.396091 70.942351 32.972629 40.632109 52.551407 93.060636 52.551406 143.154456v421.762927a40.38635 40.38635 0 1 1-80.69078 0V338.123042c0-31.006559-12.902333-65.535659-34.447181-92.159521-21.381009-26.337143-47.922951-41.082666-73.768576-41.082666H496.555498l-12.083137-14.254006c-38.625079-45.588243-60.374726-68.525724-81.796695-84.991558-22.445963-17.28503-42.188581-24.780671-65.126061-24.780671H188.947497A108.379596 108.379596 0 0 0 80.649821 189.234216V834.350861a108.379596 108.379596 0 0 0 108.297676 108.420557h739.078397a40.38635 40.38635 0 1 1 0 80.854619H188.947497A189.152296 189.152296 0 0 1 0 834.350861V189.275176A189.111337 189.111337 0 0 1 188.947497 0H337.508645c41.819943 0 78.397032 13.926328 114.236846 41.492264 24.657792 18.964381 46.980876 41.778983 82.001494 82.533971h497.210854z m-54.763235 705.245613a294.091271 294.091271 0 0 1-178.011235 59.63745c-163.347631 0-295.770622-132.62779-295.770622-296.3031 0-163.634349 132.422991-296.303099 295.729663-296.303099 163.38859 0 295.811582 132.70971 295.811581 296.303099a295.320064 295.320064 0 0 1-59.55553 178.338913l182.352972 182.68065c16.056237 16.097196 16.056237 42.188581 0 58.285777a41.123626 41.123626 0 0 1-58.244817 0l-182.271052-182.68065zM798.183369 377.116759c-118.619543 0-215.120801 96.665097-215.120801 215.489439 0 118.824342 96.501258 215.489439 215.120801 215.48944s215.120801-96.665097 215.120802-215.44848c0-118.824342-96.501258-215.530399-215.120802-215.530399z" fill="#000000" p-id="3616"></path></svg>