<?xml version="1.0" standalone="no"?><!DOCTYPE svg PUBLIC "-//W3C//DTD SVG 1.1//EN" "http://www.w3.org/Graphics/SVG/1.1/DTD/svg11.dtd"><svg t="1739896726087" class="icon" viewBox="0 0 1024 1024" version="1.1" xmlns="http://www.w3.org/2000/svg" p-id="1880" xmlns:xlink="http://www.w3.org/1999/xlink" width="200" height="200"><path d="M546.688178 0.219494c-11.647302-1.087404-25.280122 1.727764-41.343491 11.456 0 0-266.883099 232.835281-278.467976 244.29128H79.994651c-35.328538 0.064439-63.999748 28.735649-63.999748 64.064187v392.131866c0 35.455401 28.673224 63.999748 63.999748 63.999749h146.88206c11.584877 11.584877 278.467975 236.161931 278.467976 236.16193 16.063369 9.663797 29.696189 12.543403 41.343491 11.456 23.681236-2.239246 40.320526-22.080336 45.376953-43.00883 0.255741-2.047944 0.255741-935.434997-0.064439-937.482941-4.991988-20.988905-21.695717-40.827981-45.312514-43.069241zM690.626193 623.843497c-15.807628 8.000472-22.144775 27.201202-14.271166 43.00883 5.696787 11.135819 16.95947 17.59983 28.608785 17.59983 4.800686 0 9.663797-1.151842 14.400044-3.391089 64.704547-32.640234 104.896196-97.344781 104.896196-169.026835s-40.191649-136.384587-104.896196-169.026835c-15.807628-8.000472-35.008358-1.6009-43.008829 14.208742-7.871594 15.807628-1.536461 35.008358 14.271166 43.008829 42.944391 21.633292 69.632097 64.448806 69.632097 111.809264s-26.687706 90.175972-69.632097 111.809264z" fill="#010002" p-id="1881"></path><path d="M684.097744 119.453309c-17.088348-3.455527-34.241134 7.936033-37.44092 25.215683-3.455527 17.408528 7.871594 34.241134 25.215683 37.632223 157.6977 30.721168 272.130828 169.40944 272.130828 329.731004S829.57222 811.04407 671.874521 841.765238c-17.344089 3.391089-28.673224 20.159256-25.280122 37.567783 3.008484 15.296145 16.383549 25.856043 31.297089 25.856044l6.208269-0.64036c187.714069-36.544819 323.907354-201.667069 323.907354-392.516486S871.811812 156.062567 684.097744 119.453309z" fill="#010002" p-id="1882"></path></svg>