<?xml version="1.0" encoding="UTF-8" standalone="no"?>
<svg
   viewBox="0 0 48 48"
   version="1.1"
   id="svg1"
   sodipodi:docname="appearance-act.svg"
   width="48"
   height="48"
   inkscape:version="1.4.2 (f4327f4, 2025-05-13)"
   xmlns:inkscape="http://www.inkscape.org/namespaces/inkscape"
   xmlns:sodipodi="http://sodipodi.sourceforge.net/DTD/sodipodi-0.dtd"
   xmlns="http://www.w3.org/2000/svg"
   xmlns:svg="http://www.w3.org/2000/svg">
  <defs
     id="defs1" />
  <sodipodi:namedview
     id="namedview1"
     pagecolor="#ffffff"
     bordercolor="#000000"
     borderopacity="0.25"
     inkscape:showpageshadow="2"
     inkscape:pageopacity="0.0"
     inkscape:pagecheckerboard="0"
     inkscape:deskcolor="#d1d1d1"
     inkscape:zoom="6.4468251"
     inkscape:cx="160.46658"
     inkscape:cy="49.869509"
     inkscape:window-width="2560"
     inkscape:window-height="1369"
     inkscape:window-x="-8"
     inkscape:window-y="-8"
     inkscape:window-maximized="1"
     inkscape:current-layer="svg1" />
  <!--!Font Awesome Free 6.7.2 by @fontawesome - https://fontawesome.com License - https://fontawesome.com/license/free Copyright 2025 Fonticons, Inc.-->
  <path
     d="m 48,24 c 0,0.08438 0,0.16875 0,0.253125 C 47.9625,27.675 44.85,30 41.428125,30 H 32.25 c -2.484375,0 -4.5,2.015625 -4.5,4.5 0,0.31875 0.0375,0.628125 0.09375,0.928125 0.196875,0.95625 0.609375,1.875 1.0125,2.803125 0.571875,1.29375 1.134375,2.578125 1.134375,3.9375 0,2.98125 -2.025,5.690625 -5.00625,5.8125 C 24.65625,47.990625 24.328125,48 23.990625,48 10.74375,48 0,37.25625 0,24 0,10.74375 10.74375,0 24,0 37.25625,0 48,10.74375 48,24 Z m -36,3 a 3,3 0 1 0 -6,0 3,3 0 1 0 6,0 z m 0,-9 a 3,3 0 1 0 0,-6 3,3 0 1 0 0,6 z M 27,9 a 3,3 0 1 0 -6,0 3,3 0 1 0 6,0 z m 9,9 a 3,3 0 1 0 0,-6 3,3 0 1 0 0,6 z"
     id="path1"
     style="stroke-width:0.09375" />
</svg>
