<?xml version="1.0" encoding="UTF-8" standalone="no"?>
<svg
   t="1749706961972"
   class="icon"
   viewBox="0 0 245.76 245.76"
   version="1.1"
   p-id="5371"
   width="48"
   height="48"
   data-spm-anchor-id="a313x.search_index.0.i13.4ec73a81zn4oec"
   id="svg2"
   sodipodi:docname="lyrics-act.svg"
   inkscape:version="1.4.2 (f4327f4, 2025-05-13)"
   xmlns:inkscape="http://www.inkscape.org/namespaces/inkscape"
   xmlns:sodipodi="http://sodipodi.sourceforge.net/DTD/sodipodi-0.dtd"
   xmlns="http://www.w3.org/2000/svg"
   xmlns:svg="http://www.w3.org/2000/svg">
  <defs
     id="defs2" />
  <sodipodi:namedview
     id="namedview2"
     pagecolor="#ffffff"
     bordercolor="#000000"
     borderopacity="0.25"
     inkscape:showpageshadow="2"
     inkscape:pageopacity="0.0"
     inkscape:pagecheckerboard="0"
     inkscape:deskcolor="#d1d1d1"
     inkscape:zoom="7.78"
     inkscape:cx="58.933162"
     inkscape:cy="20.758355"
     inkscape:window-width="2560"
     inkscape:window-height="1369"
     inkscape:window-x="-8"
     inkscape:window-y="-8"
     inkscape:window-maximized="1"
     inkscape:current-layer="svg2" />
  <path
     d="m 143.06498,95.622347 c 0,-20.8896 12.6976,-38.809603 30.72,-46.796803 v -4.4032 c 0,-11.264 -9.216,-20.48 -20.48,-20.48 H 40.664983 c -11.263997,0 -20.377597,9.216 -20.377597,20.48 l -0.1024,184.320006 40.959997,-40.96 h 92.159997 c 11.264,0 20.48,-9.216 20.48,-20.48 v -24.7808 c -18.0224,-7.9872 -30.72,-25.9072 -30.72,-46.899203 z m -40.96,51.200003 H 61.144983 v -20.48 h 40.959997 z m 30.72,-30.72 H 61.144983 V 95.622347 h 71.679997 z m 0,-30.720003 H 61.144983 V 64.902344 h 71.679997 z"
     p-id="5372"
     fill="#000000"
     id="path1"
     style="stroke-width:0.24" />
  <path
     d="m 204.50498,66.745544 c -3.1744,-1.1264 -6.656,-1.8432 -10.24,-1.8432 -16.9984,0 -30.72,13.721603 -30.72,30.720003 0,16.998403 13.7216,30.720003 30.72,30.720003 16.9984,0 30.72,-13.7216 30.72,-30.720003 V 34.182344 h 20.48 v -20.48 h -40.96 z"
     p-id="5373"
     fill="#000000"
     id="path2"
     style="stroke-width:0.24" />
</svg>
